<?xml version="1.0" standalone="no"?>
<!DOCTYPE svg PUBLIC "-//W3C//DTD SVG 20010904//EN"
 "http://www.w3.org/TR/2001/REC-SVG-20010904/DTD/svg10.dtd">
<svg version="1.0" xmlns="http://www.w3.org/2000/svg"
 width="1024.000000pt" height="1024.000000pt" viewBox="0 0 1024.000000 1024.000000"
 preserveAspectRatio="xMidYMid meet">

<g transform="translate(0.000000,1024.000000) scale(0.100000,-0.100000)"
fill="#000000" stroke="none">
<path d="M0 5120 l0 -5120 5120 0 5120 0 0 5120 0 5120 -5120 0 -5120 0 0
-5120z m5455 3255 c785 -83 1458 -411 2016 -981 383 -392 650 -855 803 -1394
129 -455 150 -1029 55 -1520 -119 -614 -420 -1185 -863 -1638 -529 -540 -1152
-854 -1921 -969 -185 -28 -699 -25 -885 4 -608 96 -1117 317 -1590 691 -133
105 -428 405 -534 542 -380 492 -603 1046 -671 1660 -19 177 -19 554 0 725 56
496 231 983 502 1400 319 488 772 894 1293 1155 360 181 769 294 1205 333 112
10 464 5 590 -8z m4240 -7604 c16 -74 120 -178 198 -197 35 -8 35 -21 -2 -29
-74 -16 -178 -120 -197 -197 -8 -36 -21 -36 -29 1 -16 74 -120 178 -197 197
-36 8 -36 21 1 29 74 16 178 120 197 198 8 35 21 35 29 -2z"/>
<path d="M4912 8310 c-1012 -70 -1902 -589 -2469 -1440 -410 -616 -586 -1370
-497 -2130 125 -1067 791 -2009 1759 -2485 591 -291 1234 -391 1895 -295 804
117 1572 572 2062 1221 369 489 585 1046 638 1649 13 147 13 463 0 605 -65
722 -389 1409 -911 1935 -522 526 -1200 851 -1939 929 -144 15 -400 20 -538
11z m349 -1790 c52 -10 59 -15 111 -79 l56 -69 59 22 c57 21 74 21 726 24 367
2 667 1 667 -1 0 -3 -42 -94 -94 -203 l-93 -199 -38 -8 c-21 -4 -213 -6 -427
-5 -213 2 -388 0 -388 -4 0 -3 55 -54 123 -112 217 -188 488 -370 649 -436 75
-31 173 -88 165 -97 -3 -2 -40 5 -83 16 -363 92 -767 141 -1301 157 l-222 7
-21 50 c-71 165 -65 394 15 551 19 38 34 71 32 72 -2 2 -28 6 -58 10 l-56 6
-32 -123 c-93 -358 -144 -546 -152 -561 -7 -13 -22 -18 -55 -18 -39 0 -45 3
-40 18 3 9 37 134 76 277 81 296 198 714 204 731 3 9 20 8 63 -1 32 -8 83 -18
114 -25z m-350 -381 c-60 -211 -124 -437 -142 -501 -37 -136 -18 -123 -199
-133 -346 -19 -800 -96 -1024 -174 -33 -12 -61 -21 -63 -21 -1 0 -3 250 -3
555 l0 555 205 0 205 0 0 -410 0 -410 54 0 c50 0 59 4 173 83 297 207 583 473
852 795 24 28 46 50 48 48 2 -2 -46 -176 -106 -387z m654 -699 c806 -35 1470
-184 1576 -356 37 -60 18 -123 -53 -174 -54 -40 -68 -38 -22 2 95 84 54 152
-138 232 -229 95 -619 165 -1153 208 -244 20 -968 17 -1225 -5 -377 -32 -630
-69 -869 -128 -205 -50 -332 -103 -401 -166 -57 -50 -55 -82 8 -142 34 -33 39
-40 17 -27 -154 95 -135 210 50 300 387 189 1299 294 2210 256z m-425 -620 l0
-469 -172 -3 c-95 -2 -188 -2 -205 0 l-33 3 0 410 0 409 -420 0 -420 0 0 -410
0 -409 -197 -3 c-109 -2 -201 -2 -205 0 -5 2 -8 167 -8 368 l0 365 35 15 c54
22 263 71 425 98 305 52 721 88 1078 94 l122 2 0 -470z m652 450 c420 -28 844
-98 1078 -178 l55 -19 3 -116 c3 -139 -15 -236 -60 -327 -41 -81 -134 -176
-214 -218 -117 -61 -124 -62 -823 -62 -599 0 -633 1 -626 18 3 9 45 101 92
204 l86 187 534 3 535 3 33 36 c76 84 49 237 -48 268 -18 6 -180 42 -362 81
-384 82 -555 120 -555 126 0 7 113 4 272 -6z m-2262 -1360 l0 -60 65 0 65 0 0
60 c0 57 1 60 25 60 l25 0 0 -151 c0 -150 0 -150 -22 -147 -21 3 -23 9 -26 66
l-3 62 -64 0 -64 0 -3 -62 c-3 -60 -4 -63 -28 -63 l-25 0 -3 148 -3 147 31 0
30 0 0 -60z m480 35 c0 -25 -1 -25 -80 -25 l-80 0 0 -35 0 -35 70 0 c68 0 70
-1 70 -25 0 -24 -2 -25 -70 -25 l-70 0 0 -35 0 -35 80 0 80 0 0 -30 0 -31
-107 3 -108 3 -3 148 -3 147 111 0 110 0 0 -25z m170 -57 c25 -43 47 -78 50
-78 3 0 26 35 50 78 37 63 50 78 73 80 l27 3 0 -145 0 -146 -25 0 c-24 0 -24
2 -27 87 l-3 88 -43 -68 c-23 -38 -48 -67 -55 -65 -6 3 -30 34 -52 71 l-40 67
-3 -89 c-3 -85 -4 -89 -27 -94 l-25 -4 0 149 0 149 27 -3 c22 -2 36 -18 73
-80z m378 7 c24 -41 48 -77 52 -80 5 -3 30 31 56 75 41 72 49 81 73 78 l26 -3
0 -145 0 -145 -27 -3 -28 -3 0 93 c-1 74 -3 89 -12 73 -39 -70 -82 -125 -90
-117 -5 5 -27 38 -49 73 l-39 64 0 -87 0 -88 -30 0 -30 0 0 145 0 145 28 0
c23 0 33 -11 70 -75z m500 -67 c34 -79 62 -146 62 -150 0 -5 -11 -8 -25 -8
-19 0 -29 9 -42 35 -17 35 -17 35 -85 35 l-69 0 -15 -35 c-11 -27 -20 -35 -39
-35 -14 0 -25 6 -25 13 0 6 24 66 53 132 30 66 56 128 60 138 4 10 17 17 34
17 27 0 32 -8 91 -142z m402 127 c35 -18 37 -26 13 -48 -16 -13 -20 -14 -37
-1 -43 31 -126 5 -97 -30 7 -8 35 -20 62 -27 63 -16 99 -48 99 -88 0 -77 -102
-116 -188 -72 -45 23 -50 32 -28 50 12 10 26 8 65 -6 56 -20 86 -12 86 23 0
14 -15 24 -56 39 -74 26 -99 49 -99 92 0 53 36 83 100 83 28 0 64 -7 80 -15z
m310 -15 c0 -29 -2 -30 -45 -30 l-44 0 -3 -117 -3 -118 -25 0 -25 0 -3 117 -3
117 -42 3 c-38 3 -42 6 -45 31 l-3 27 120 0 121 0 0 -30z m108 -77 c3 -97 4
-103 29 -123 30 -23 58 -19 86 12 14 16 17 39 17 119 l0 99 31 0 31 0 -4 -115
c-3 -113 -3 -115 -34 -146 -61 -61 -169 -47 -200 26 -9 22 -14 71 -14 135 l0
101 28 -3 27 -3 3 -102z m458 81 c50 -37 69 -72 69 -124 0 -92 -59 -139 -185
-147 l-80 -6 0 153 0 152 84 -3 c66 -3 91 -9 112 -25z m184 -119 l0 -145 -25
0 -25 0 0 145 0 145 25 0 25 0 0 -145z m298 125 c100 -61 95 -211 -8 -262
-102 -52 -220 19 -220 131 0 86 64 151 150 151 27 0 58 -8 78 -20z"/>
<path d="M5135 6428 c-13 -36 -23 -104 -17 -109 11 -10 160 -31 171 -25 5 3 2
31 -6 65 l-15 60 -50 10 c-63 14 -78 14 -83 -1z"/>
<path d="M5595 5996 c-72 -33 -71 -29 -31 -161 20 -65 36 -124 36 -131 0 -7 4
-16 10 -19 9 -6 203 -45 207 -41 3 3 -182 366 -187 366 -3 -1 -18 -7 -35 -14z"/>
<path d="M5690 6003 c0 -13 182 -368 193 -375 14 -9 197 -41 203 -36 2 3 -9
42 -26 88 -29 84 -29 85 -127 167 -172 147 -194 163 -219 163 -13 0 -24 -3
-24 -7z"/>
<path d="M6114 5644 l22 -67 95 -23 c52 -13 100 -23 108 -24 8 0 -26 28 -75
61 -49 34 -105 75 -125 90 -20 16 -39 29 -42 29 -3 0 4 -30 17 -66z"/>
<path d="M4919 6341 c-2 -5 -34 -40 -70 -78 -57 -58 -73 -83 -113 -178 -25
-60 -88 -195 -139 -298 l-94 -188 105 3 104 3 40 135 c21 74 70 240 109 369
38 128 68 236 65 238 -2 2 -6 0 -7 -6z"/>
<path d="M4580 5992 c-64 -59 -149 -134 -190 -167 -70 -57 -77 -66 -102 -135
-15 -41 -27 -79 -27 -83 -1 -4 43 -6 97 -5 l97 3 92 180 c79 156 156 316 150
314 -1 0 -54 -48 -117 -107z"/>
<path d="M4170 5658 c-41 -27 -77 -52 -80 -55 -2 -2 24 -3 59 -1 l63 3 20 49
c10 27 17 50 16 51 -2 2 -37 -19 -78 -47z"/>
<path d="M4952 3863 c-5 -15 -13 -36 -17 -45 -6 -15 -1 -18 34 -18 l41 0 -15
38 c-22 52 -31 58 -43 25z"/>
<path d="M6200 3826 l0 -96 44 0 c57 0 94 30 102 81 9 52 -33 97 -98 105 l-48
7 0 -97z"/>
<path d="M6679 3891 c-38 -38 -40 -97 -5 -138 34 -39 98 -39 132 0 53 62 11
167 -66 167 -22 0 -41 -9 -61 -29z"/>
</g>
</svg>
