<?xml version="1.0" encoding="utf-8"?>
<!-- Generator: Adobe Illustrator 24.3.0, SVG Export Plug-In . SVG Version: 6.00 Build 0)  -->
<svg version="1.1" id="Layer_1" xmlns="http://www.w3.org/2000/svg" xmlns:xlink="http://www.w3.org/1999/xlink" x="0px" y="0px"
	 viewBox="0 0 4000 4000" style="enable-background:new 0 0 4000 4000;" xml:space="preserve">
<style type="text/css">
	.st0{fill:#FFFFFF;}
</style>
<g>
	<path class="st0" d="M3596.44,1999.93c243.31-174.02,396.36-426.36,396.36-706.66c0-524.37-536.1-950.86-1195.39-950.86H1862.9
		c250.47,110.36,453.01,281.8,575.51,488.66h358.99c320.6,0,581.14,207.41,581.14,462.33c0,254.92-260.54,462.19-581.14,462.19
		H1109.69v488.67h673.87v462.33c0,254.92-260.54,462.33-580.97,462.33c-320.43,0-581.14-207.41-581.14-462.33V1293.27
		c0-254.92,260.71-462.2,581.14-462.2c320.43,0,580.97,207.28,580.97,462.2v342.47h614.25v-342.47
		c0-167.64-54.77-325.37-150.83-462.2c-204.58-291.3-595.99-488.66-1044.39-488.66c-72.17,0-142.81,5.16-211.4,14.93
		c-19.62,2.72-39.07,5.84-58.35,9.5c-19.28,3.53-38.22,7.46-57.16,11.67c-7.16,1.63-14.16,3.26-21.16,5.02
		c-14.16,3.39-27.98,7.06-41.97,10.86c-6.83,1.9-13.82,3.8-20.64,5.84c-18.26,5.29-36.35,11-54.26,16.97
		c-17.91,6.11-35.49,12.49-52.89,19.14c-43.51,16.7-85.65,35.43-126.09,56.06c-16.21,8.28-32.08,16.83-47.77,25.65
		c-15.53,8.82-30.88,18.05-45.9,27.42c-15.19,9.37-29.86,19.14-44.36,29.05c-7.17,5.02-14.33,10.04-21.5,15.2
		c-14.16,10.18-27.98,20.77-41.46,31.49c-94.7,75.33-173.53,163.3-232.39,260.21c-8.36,13.85-16.38,27.83-23.89,42.08
		c-3.92,7.06-7.51,14.25-11.09,21.58c-7.34,14.39-13.99,28.91-20.13,43.71C29.38,1084.36,7.2,1186.85,7.2,1293.4V2706.6
		c0,524.5,536.1,951,1195.39,951c448.4,0,839.81-197.37,1044.22-488.67c96.23-136.96,151-294.69,151-462.33v-462.33h399.6
		c320.6,0,581.14,207.41,581.14,462.33s-260.54,462.33-581.14,462.33h-358.82c-13.31,22.4-27.64,44.52-42.83,66.24
		c-126.95,180.81-313.1,325.64-533.2,422.43h934.85c659.29,0,1195.39-426.49,1195.39-951
		C3992.8,2426.29,3839.75,2174.09,3596.44,1999.93z"/>
</g>
</svg>
